<svg width="13" height="11" viewBox="0 0 13 11" fill="none" xmlns="http://www.w3.org/2000/svg">
<path d="M10.8333 6.5C9.80417 6.5 8.99167 7.15 8.72083 8H3.79167C2.275 8 1.08333 6.9 1.08333 5.5V4H8.72083C8.9375 4.85 9.80417 5.5 10.8333 5.5C12.025 5.5 13 4.6 13 3.5C13 2.4 12.025 1.5 10.8333 1.5C9.80417 1.5 8.99167 2.15 8.72083 3H1.08333V0.5C1.08333 0.2 0.866667 0 0.541667 0C0.216667 0 0 0.2 0 0.5V5.5C0 7.45 1.67917 9 3.79167 9H8.72083C8.9375 9.85 9.80417 10.5 10.8333 10.5C12.025 10.5 13 9.6 13 8.5C13 7.4 12.025 6.5 10.8333 6.5ZM10.8333 2.5C11.4292 2.5 11.9167 2.95 11.9167 3.5C11.9167 4.05 11.4292 4.5 10.8333 4.5C10.2375 4.5 9.75 4.05 9.75 3.5C9.75 2.95 10.2375 2.5 10.8333 2.5ZM10.8333 9.5C10.2375 9.5 9.75 9.05 9.75 8.5C9.75 7.95 10.2375 7.5 10.8333 7.5C11.4292 7.5 11.9167 7.95 11.9167 8.5C11.9167 9.05 11.4292 9.5 10.8333 9.5Z" fill="#B7B9BB"/>
</svg>
