<svg width="16" height="16" viewBox="0 0 16 16" fill="none" xmlns="http://www.w3.org/2000/svg">
<path d="M5.5 13.8333V8.83333C5.5 8.39131 5.3244 7.96738 5.01184 7.65482C4.69928 7.34226 4.27536 7.16667 3.83333 7.16667H2.16667C1.72464 7.16667 1.30072 7.34226 0.988155 7.65482C0.675595 7.96738 0.5 8.39131 0.5 8.83333V13.8333C0.5 14.2754 0.675595 14.6993 0.988155 15.0118C1.30072 15.3244 1.72464 15.5 2.16667 15.5H3.83333C4.27536 15.5 4.69928 15.3244 5.01184 15.0118C5.3244 14.6993 5.5 14.2754 5.5 13.8333ZM5.5 13.8333V5.5C5.5 5.05797 5.67559 4.63405 5.98816 4.32149C6.30072 4.00893 6.72464 3.83333 7.16667 3.83333H8.83333C9.27536 3.83333 9.69928 4.00893 10.0118 4.32149C10.3244 4.63405 10.5 5.05797 10.5 5.5V13.8333M5.5 13.8333C5.5 14.2754 5.67559 14.6993 5.98816 15.0118C6.30072 15.3244 6.72464 15.5 7.16667 15.5H8.83333C9.27536 15.5 9.69928 15.3244 10.0118 15.0118C10.3244 14.6993 10.5 14.2754 10.5 13.8333M10.5 13.8333V2.16667C10.5 1.72464 10.6756 1.30072 10.9882 0.988155C11.3007 0.675595 11.7246 0.5 12.1667 0.5H13.8333C14.2754 0.5 14.6993 0.675595 15.0118 0.988155C15.3244 1.30072 15.5 1.72464 15.5 2.16667V13.8333C15.5 14.2754 15.3244 14.6993 15.0118 15.0118C14.6993 15.3244 14.2754 15.5 13.8333 15.5H12.1667C11.7246 15.5 11.3007 15.3244 10.9882 15.0118C10.6756 14.6993 10.5 14.2754 10.5 13.8333Z" stroke="#333333" stroke-linecap="round" stroke-linejoin="round"/>
</svg>
